<svg><path fill="var(--logoSpark)" d="M12.97 38.07h-.45l-2.26-2.25v-.45l3.46-3.44h2.4l.31.32v2.38l-3.46 3.44ZM10.26 12.63v-.45l2.26-2.25h.45l3.46 3.44v2.38l-.32.32h-2.4l-3.45-3.44ZM13.44 25.91H.27L0 25.64v-3.28l.27-.27h13.17l.28.27v3.28l-.28.27ZM47.73 25.91H34.56l-.27-.27v-3.28l.27-.27h13.17l.27.27v3.28l-.27.27ZM22.1 13.1V3.26l.28-.27h3.3l.27.27v9.82l-.27.28h-3.3l-.28-.28ZM22.1 44.73V34.9l.28-.28h3.3l.27.28v9.82l-.27.27h-3.3l-.28-.27Z"/><path fill="var(--logoN)" d="M30.17 30.82h-3.29l-.27-.27v-7.67c0-1.36-.54-2.42-2.2-2.45-.85-.02-1.82 0-2.86.04l-.16.16v9.91l-.27.28h-3.3l-.27-.28V17.45l.28-.27h7.4a5.2 5.2 0 0 1 5.22 5.18v8.19l-.28.27Z"/></svg>